<?xml version="1.0" encoding="utf-8"?>
<!-- Generator: Adobe Illustrator 23.0.5, SVG Export Plug-In . SVG Version: 6.00 Build 0)  -->
<svg version="1.1" id="Layer_1" xmlns="http://www.w3.org/2000/svg" xmlns:xlink="http://www.w3.org/1999/xlink" x="0px" y="0px"
	 viewBox="0 0 595.3 595.3" style="enable-background:new 0 0 595.3 595.3;" xml:space="preserve">
<style type="text/css">
	.st0{fill:#FFCC4B;}
</style>
<path class="st0" d="M457.7,473.1c-5.2,7.8-13.7,12.9-23,13.8c-1,0.1-2.1,0.2-3.1,0.2c-8.3,0-16.3-3.3-22.2-9.2L295.8,364.4
	c-12.3-12.3-12.3-32.2,0-44.4s32.2-12.3,44.4,0l86.4,86.4L573.6,186c-5.1-12.7-11.2-25-17.9-36.8L445.1,315.1
	c-5.2,7.8-13.7,12.9-23,13.8c-1,0.1-2.1,0.2-3.1,0.2c-8.3,0-16.3-3.3-22.2-9.2L283.3,206.3c-12.3-12.3-12.3-32.2,0-44.4
	c12.3-12.3,32.2-12.3,44.4,0l86.4,86.4L516,95.5C461.7,36.8,384,0,297.6,0H40.1C17.9,0,0,17.9,0,40.1v515.2
	c0,22.1,17.9,40.1,40.1,40.1h257.6c164.4,0,297.6-133.3,297.6-297.6v0c0-9.7-0.5-19.3-1.4-28.8L457.7,473.1z"/>
</svg>
